<svg width="100%" height="100%" viewBox="0 0 100 100" fill="none" xmlns="http://www.w3.org/2000/svg">
<g transform="matrix(0.10734,0,0,-0.10734,22.1441,88.0000)">
<path d="M562 210Q556 194 550.0 173.0Q544 152 538 128Q533 109 525.0 73.5Q517 38 511 0Q460 2 397.0 2.5Q334 3 284 3Q259 3 220.5 3.0Q182 3 136.0 2.5Q90 2 44.0 1.5Q-2 1 -43 0L-38 20Q-4 22 15.0 28.0Q34 34 44.5 52.0Q55 70 65 106L197 602Q207 639 205.0 656.5Q203 674 187.5 680.5Q172 687 138 688L143 708Q169 707 213.5 706.0Q258 705 308 705Q352 705 393.0 706.0Q434 707 464 708L459 688Q425 687 406.0 680.5Q387 674 376.0 656.5Q365 639 355 602L223 106Q214 70 215.0 52.0Q216 34 231.5 28.5Q247 23 281 23H321Q366 23 405.5 41.0Q445 59 479.0 100.0Q513 141 540 210Z" fill="#1a2744"/>
</g>
</svg>
