<svg width="72" height="72" viewBox="0 0 72 72" fill="none" xmlns="http://www.w3.org/2000/svg">
<path d="M0 36C0 16.1178 16.1178 0 36 0C55.8823 0 72 16.1178 72 36C72 55.8823 55.8823 72 36 72C16.1178 72 0 55.8823 0 36Z" fill="#D4813A" fill-opacity="0.12"/>
<path d="M45.3333 34.6666H26.6667C25.1939 34.6666 24 35.8605 24 37.3333V46.6666C24 48.1394 25.1939 49.3333 26.6667 49.3333H45.3333C46.8061 49.3333 48 48.1394 48 46.6666V37.3333C48 35.8605 46.8061 34.6666 45.3333 34.6666Z" stroke="#D4813A" stroke-width="2.66667"/>
<path d="M29.3335 34.6666V29.3333C29.3335 27.5652 30.0359 25.8695 31.2861 24.6192C32.5364 23.369 34.2321 22.6666 36.0002 22.6666C37.7683 22.6666 39.464 23.369 40.7142 24.6192C41.9645 25.8695 42.6668 27.5652 42.6668 29.3333V34.6666" stroke="#D4813A" stroke-width="2.66667"/>
</svg>
