<svg preserveAspectRatio="none" width="100%" height="100%" overflow="visible" style="display: block;" viewBox="0 0 169 55" fill="none" xmlns="http://www.w3.org/2000/svg">
<g id="Email Input">
<mask id="path-1-inside-1_0_11" fill="white">
<path d="M0 8C0 3.58172 3.58172 0 8 0H161C165.418 0 169 3.58172 169 8V47C169 51.4183 165.418 55 161 55H8C3.58172 55 0 51.4183 0 47V8Z"/>
</mask>
<path d="M0 8C0 3.58172 3.58172 0 8 0H161C165.418 0 169 3.58172 169 8V47C169 51.4183 165.418 55 161 55H8C3.58172 55 0 51.4183 0 47V8Z" fill="white"/>
<path d="M8 0V1.5H161V0V-1.5H8V0ZM169 8H167.5V47H169H170.5V8H169ZM161 55V53.5H8V55V56.5H161V55ZM0 47H1.5V8H0H-1.5V47H0ZM8 55V53.5C4.41015 53.5 1.5 50.5899 1.5 47H0H-1.5C-1.5 52.2467 2.7533 56.5 8 56.5V55ZM169 47H167.5C167.5 50.5899 164.59 53.5 161 53.5V55V56.5C166.247 56.5 170.5 52.2467 170.5 47H169ZM161 0V1.5C164.59 1.5 167.5 4.41015 167.5 8H169H170.5C170.5 2.75329 166.247 -1.5 161 -1.5V0ZM8 0V-1.5C2.7533 -1.5 -1.5 2.75329 -1.5 8H0H1.5C1.5 4.41015 4.41015 1.5 8 1.5V0Z" fill="#DDD8CE" mask="url(#path-1-inside-1_0_11)"/>
<path id="Vector" d="M12.9453 30.2803C13.2521 30.5732 13.7504 30.5732 14.0572 30.2803L18.7699 25.7812C19.0767 25.4883 19.0767 25.0126 18.7699 24.7197C18.4631 24.4268 17.9648 24.4268 17.658 24.7197L13.5 28.6892L9.34202 24.722C9.0352 24.4291 8.53693 24.4291 8.23011 24.722C7.9233 25.0149 7.9233 25.4906 8.23011 25.7835L12.9428 30.2827L12.9453 30.2803Z" fill="#C8BCA8"/>
</g>
</svg>
